<svg xmlns="http://www.w3.org/2000/svg">
    <symbol id="moon-icon" viewBox="0 0 24 24">
        <path d="M21 12.79A9 9 0 1111.21 3a7 7 0 009.79 9.79z"
              stroke-width="2"
              stroke-linecap="round"
              stroke-linejoin="round"/>
    </symbol>

    <symbol id="sun-icon" viewBox="0 0 24 24">
        <circle cx="12" cy="12" r="5"></circle>
        <path d="M12 1v2M12 21v2M4.22 4.22l1.42 1.42M18.36 18.36l1.42 1.42M1 12h2M21 12h2M4.22 19.78l1.42-1.42M18.36 5.64l1.42-1.42"
              stroke-width="2"
              stroke-linecap="round"
              stroke-linejoin="round"/>
    </symbol>

    <symbol id="play-button" viewBox="0 0 52 52">
        <circle cx="26" cy="26" r="26" fill="#C75E90"/>
        <path d="M19.3333 14.75V36.25L37.2499 25.5L19.3333 14.75Z"
              stroke="white"
              stroke-width="1.5"
              stroke-linejoin="round"/>
    </symbol>
     <symbol id="location-icon" viewBox="0 0 52 52">
        <g id="shape">
            <path d="M25.9998 30.3333C29.5897 30.3333 32.4998 27.4232 32.4998 23.8333C32.4998 20.2435 29.5897 17.3333 25.9998 17.3333C22.41 17.3333 19.4998 20.2435 19.4998 23.8333C19.4998 27.4232 22.41 30.3333 25.9998 30.3333Z"
                  stroke="white"
                  stroke-width="2.6"
                  stroke-linecap="round"
                  stroke-linejoin="round"/>
            <path d="M25.9998 45.5C35.5728 41.1667 43.3332 33.4063 43.3332 23.8333C43.3332 14.2604 35.5728 6.5 25.9998 6.5C16.4269 6.5 8.6665 14.2604 8.6665 23.8333C8.6665 33.4063 16.4269 41.1667 25.9998 45.5Z"
                  stroke="white"
                  stroke-width="2.6"
                  stroke-linecap="round"
                  stroke-linejoin="round"/>
        </g>
    </symbol>
    <symbol id="phone-icon" viewBox="0 0 51 51">
        <path d="M44.624 40.7712V35.0129C44.6474 34.0716 44.3233 33.1545 43.7134 32.4361C41.9934 30.4101 36.0944 29.1141 33.756 29.6119C31.9333 29.9998 30.658 31.83 29.4113 33.0743C24.5964 30.3419 20.6097 26.3631 17.8719 21.5578C19.1187 20.3135 20.9525 19.0408 21.3412 17.2216C21.8391 14.8915 20.545 9.03017 18.533 7.30329C17.8253 6.69588 16.9205 6.36602 15.9871 6.37519H10.2175C8.01909 6.37725 6.1901 8.34901 6.39026 10.5595C6.37524 29.6119 21.2502 44.625 40.4313 44.61C42.6537 44.8105 44.6329 42.9724 44.624 40.7712Z"
              stroke="white"
              stroke-width="2.6"
              stroke-linecap="round"
              stroke-linejoin="round"/>
    </symbol>
    <symbol id="mail-icon" viewBox="0 0 54 54">
        <path d="M7.40901 11.909C7.81618 11.5018 8.37868 11.25 9 11.25H45C45.6213 11.25 46.1838 11.5018 46.591 11.909M7.40901 11.909C7.00184 12.3162 6.75 12.8787 6.75 13.5V40.5C6.75 41.7426 7.75736 42.75 9 42.75H45C46.2426 42.75 47.25 41.7426 47.25 40.5V13.5C47.25 12.8787 46.9982 12.3162 46.591 11.909M7.40901 11.909L23.818 28.3179C25.5754 30.0753 28.4246 30.0753 30.182 28.3179L46.591 11.909"
              stroke="white"
              stroke-width="2.6"
              stroke-linecap="round"
              stroke-linejoin="round"/>
    </symbol>
    <symbol id="toggle-icon" viewBox="0 0 44 44">
        <circle cx="22" cy="22" r="22" fill="#C75E90"/>
        <path d="M10 17.5L22 29.5L34 17.5"
              stroke="white"
              stroke-width="2.6"
              stroke-linecap="round"
              stroke-linejoin="round"
              class="icon-path"/>
    </symbol>
</svg>