<svg xmlns="http://www.w3.org/2000/svg" viewBox="0 0 44 44"><symbol id="facebook-icon" viewBox="0 0 44 44"><path class="facebook-path" fill-rule="evenodd" clip-rule="evenodd" d="M0 22C0 9.85 9.85 0 22 0s22 9.85 22 22-9.85 22-22 22S0 34.15 0 22zm22-11c6.05 0 11 4.95 11 11 0 5.5-3.988 10.175-9.488 11v-7.837h2.613l.55-3.163H23.65v-2.063c0-.825.413-1.65 1.788-1.65h1.375v-2.75s-1.238-.275-2.476-.275c-2.474 0-4.125 1.513-4.125 4.263V22h-2.75v3.163h2.75v7.7C14.988 32.037 11 27.5 11 22c0-6.05 4.95-11 11-11z" fill="#C75E90"/></symbol></svg>