<svg width="57" height="57" viewBox="0 0 57 57" fill="none" xmlns="http://www.w3.org/2000/svg"><g id="royal-crown-variant-made-of-lines-and-circles-svgrepo-com 1" clip-path="url(#clip0_1_517)"><g id="Group"><path id="Vector" d="M51.362 15.396a5.637 5.637 0 00-5.633 5.633c0 2.084 1.152 3.885 2.84 4.858l-6.97 2.509-10.772-12.818c1.962-.878 3.339-2.842 3.339-5.13a5.637 5.637 0 00-5.633-5.632 5.637 5.637 0 00-5.63 5.633c0 2.262 1.35 4.21 3.286 5.101L15.396 28.389 8.42 25.882c1.688-.972 2.84-2.777 2.84-4.856a5.637 5.637 0 00-5.632-5.633A5.637 5.637 0 000 21.026c0 2.64 1.84 4.849 4.3 5.451v16.284c0 .04.018.068.02.106.004.04-.01.089 0 .13.01.064.044.114.061.176.024.063.04.127.07.191.046.093.112.178.174.257.03.037.044.085.077.112 2.93 4.3 21.517 4.44 23.798 4.44 2.281 0 20.87-.132 23.8-4.44.032-.032.045-.078.075-.112a1.55 1.55 0 00.175-.257c.029-.06.044-.125.068-.19.017-.058.051-.113.064-.177.007-.041-.006-.09 0-.13 0-.037.018-.065.018-.106V26.477c2.465-.602 4.3-2.81 4.3-5.451-.009-3.104-2.534-5.63-5.638-5.63zM28.491 45.433c-7.22 0-12.646-.587-16.252-1.299-2.7-.531-4.388-1.13-5.026-1.601.457-.335 1.452-.739 2.972-1.138 1.594-.417 3.77-.828 6.525-1.145 3.17-.368 7.098-.617 11.781-.617 4.683 0 8.612.25 11.78.617 2.758.317 4.932.727 6.53 1.145 1.516.4 2.512.803 2.968 1.138-.637.471-2.32 1.07-5.023 1.601-3.608.712-9.034 1.3-16.255 1.3zm12.5-7.837l-8.45-3.04 8.183-2.938 5.815 6.918c-1.703-.409-3.619-.712-5.547-.94zm-9.952-.665c-1.237-.03-2.145-.038-2.548-.038-.404 0-1.312.007-2.548.038l2.548-.913 2.548.913zm-15.049.665c-1.933.228-3.844.531-5.548.94l5.815-6.918 8.182 2.938-8.449 3.04zm33.963-9.293v10.033l-6.478-7.705 6.478-2.328zm-24.315-17.85a2.897 2.897 0 012.893-2.894 2.894 2.894 0 012.89 2.893 2.894 2.894 0 01-2.89 2.89 2.897 2.897 0 01-2.893-2.89zm2.853 6.613l10.353 12.318-10.353 3.72-10.354-3.72 10.354-12.318zM13.508 30.63L7.03 38.336V28.303l6.478 2.328zM2.733 21.029a2.894 2.894 0 012.89-2.893 2.897 2.897 0 012.892 2.893 2.891 2.891 0 01-5.783 0zm48.629 2.89a2.894 2.894 0 01-2.893-2.89 2.897 2.897 0 012.893-2.893 2.891 2.891 0 010 5.783zm1.049 23.745c.331.682.046 1.5-.632 1.834-2.74 1.336-11.001 2.686-23.288 2.686-12.104 0-20.655-1.623-23.198-2.645a1.374 1.374 0 01-.76-1.785 1.386 1.386 0 011.785-.76c1.988.8 10.02 2.45 22.176 2.45 12.585 0 20.103-1.44 22.087-2.405a1.362 1.362 0 011.83.625z" fill="#C75E90"/></g></g><defs><clipPath id="clip0_1_517"><path fill="#fff" d="M0 0h57v57H0z"/></clipPath></defs></svg>