<svg xmlns="http://www.w3.org/2000/svg"><symbol id="moon-icon" viewBox="0 0 24 24"><path d="M21 12.79A9 9 0 1111.21 3 7 7 0 0021 12.79z" stroke-width="2" stroke-linecap="round" stroke-linejoin="round"/></symbol><symbol id="sun-icon" viewBox="0 0 24 24"><circle cx="12" cy="12" r="5"/><path d="M12 1v2m0 18v2M4.22 4.22l1.42 1.42m12.72 12.72l1.42 1.42M1 12h2m18 0h2M4.22 19.78l1.42-1.42M18.36 5.64l1.42-1.42" stroke-width="2" stroke-linecap="round" stroke-linejoin="round"/></symbol><symbol id="play-button" viewBox="0 0 52 52"><circle cx="26" cy="26" r="26" fill="#C75E90"/><path d="M19.333 14.75v21.5L37.25 25.5 19.333 14.75z" stroke="#fff" stroke-width="1.5" stroke-linejoin="round"/></symbol><symbol id="location-icon" viewBox="0 0 52 52"><g id="shape" stroke="#fff" stroke-width="2.6" stroke-linecap="round" stroke-linejoin="round"><path d="M26 30.333a6.5 6.5 0 100-13 6.5 6.5 0 000 13z"/><path d="M26 45.5c9.573-4.333 17.333-12.094 17.333-21.667C43.333 14.26 35.573 6.5 26 6.5c-9.573 0-17.334 7.76-17.334 17.333 0 9.573 7.76 17.334 17.334 21.667z"/></g></symbol><symbol id="phone-icon" viewBox="0 0 51 51"><path d="M44.624 40.771v-5.758a3.834 3.834 0 00-.91-2.577c-1.72-2.026-7.62-3.322-9.958-2.824-1.823.388-3.098 2.218-4.345 3.462a30.741 30.741 0 01-11.54-11.516c1.248-1.244 3.082-2.517 3.47-4.336.498-2.33-.796-8.192-2.808-9.919a3.85 3.85 0 00-2.546-.928h-5.77C8.02 6.377 6.19 8.35 6.39 10.56c-.015 19.053 14.86 34.066 34.041 34.05 2.223.2 4.202-1.638 4.193-3.839z" stroke="#fff" stroke-width="2.6" stroke-linecap="round" stroke-linejoin="round"/></symbol><symbol id="mail-icon" viewBox="0 0 54 54"><path d="M7.409 11.909c.407-.407.97-.659 1.591-.659h36c.621 0 1.184.252 1.591.659m-39.182 0c-.407.407-.659.97-.659 1.591v27A2.25 2.25 0 009 42.75h36a2.25 2.25 0 002.25-2.25v-27c0-.621-.252-1.184-.659-1.591m-39.182 0l16.409 16.409a4.5 4.5 0 006.364 0l16.409-16.409" stroke="#fff" stroke-width="2.6" stroke-linecap="round" stroke-linejoin="round"/></symbol><symbol id="toggle-icon" viewBox="0 0 44 44"><circle cx="22" cy="22" r="22" fill="#C75E90"/><path d="M10 17.5l12 12 12-12" stroke="#fff" stroke-width="2.6" stroke-linecap="round" stroke-linejoin="round" class="icon-path"/></symbol></svg>