<svg xmlns="http://www.w3.org/2000/svg" viewBox="0 0 44 44"><symbol id="instagram-icon" viewBox="0 0 44 44"><path class="instagram-center-dot" d="M22 25.85c-2.063 0-3.85-1.65-3.85-3.85 0-2.063 1.65-3.85 3.85-3.85 2.063 0 3.85 1.65 3.85 3.85 0 2.063-1.788 3.85-3.85 3.85z" fill="#C75E90"/><path class="instagram-inner-border" fill-rule="evenodd" clip-rule="evenodd" d="M26.675 12.65h-9.35c-1.1.137-1.65.275-2.063.412-.55.138-.962.413-1.375.825-.326.327-.48.653-.667 1.048-.049.104-.1.213-.158.327a7.39 7.39 0 01-.072.203c-.143.393-.34.93-.34 1.86v9.35c.137 1.1.275 1.65.412 2.063.138.55.413.962.825 1.375.327.326.653.48 1.048.666.104.05.213.101.327.159.064.02.131.045.203.072.393.143.93.34 1.86.34h9.35c1.1-.138 1.65-.275 2.063-.413.55-.137.962-.412 1.375-.825.326-.326.48-.652.666-1.047.05-.104.101-.213.159-.328a7.39 7.39 0 01.072-.202c.143-.393.34-.93.34-1.86v-9.35c-.138-1.1-.275-1.65-.413-2.063-.137-.55-.412-.962-.825-1.375-.326-.326-.652-.48-1.047-.667-.104-.049-.213-.1-.328-.158a7.39 7.39 0 01-.202-.072c-.393-.143-.93-.34-1.86-.34zM22 16.087A5.869 5.869 0 0016.087 22 5.87 5.87 0 0022 27.913 5.87 5.87 0 0027.913 22 5.87 5.87 0 0022 16.087zm7.425-.137a1.375 1.375 0 11-2.75 0 1.375 1.375 0 012.75 0z" fill="#C75E90"/><path class="instagram-outer-border" fill-rule="evenodd" clip-rule="evenodd" d="M0 22C0 9.85 9.85 0 22 0s22 9.85 22 22-9.85 22-22 22S0 34.15 0 22zm17.325-11.412h9.35c1.238.137 2.063.275 2.75.55.825.412 1.375.687 2.063 1.374a6.004 6.004 0 011.374 2.063c.276.688.55 1.512.55 2.75v9.35c-.137 1.238-.274 2.063-.55 2.75-.412.825-.687 1.375-1.375 2.063a6.004 6.004 0 01-2.062 1.374c-.688.276-1.512.55-2.75.55h-9.35c-1.238-.137-2.063-.274-2.75-.55-.825-.412-1.375-.687-2.063-1.375a6.004 6.004 0 01-1.375-2.062c-.274-.688-.55-1.512-.55-2.75v-9.35c.138-1.238.276-2.063.55-2.75.413-.825.688-1.375 1.375-2.063a6.004 6.004 0 012.063-1.375c.688-.274 1.512-.55 2.75-.55z" fill="#C75E90"/></symbol></svg>