<svg xmlns="http://www.w3.org/2000/svg" viewBox="0 0 44 44"><symbol id="linkedin-icon" viewBox="0 0 44 44"><path class="linkedin-path" fill-rule="evenodd" clip-rule="evenodd" d="M0 22C0 9.85 9.85 0 22 0s22 9.85 22 22-9.85 22-22 22S0 34.15 0 22zm11.275-3.712V33h4.675V18.288h-4.675zM11 13.613c0 1.512 1.1 2.612 2.613 2.612 1.512 0 2.612-1.1 2.612-2.613 0-1.512-1.1-2.612-2.613-2.612C12.239 11 11 12.1 11 13.613zM28.325 33h4.4v-9.075c0-4.538-2.75-6.05-5.363-6.05-2.337 0-3.987 1.512-4.4 2.475v-2.063h-4.4V33h4.675v-7.837c0-2.063 1.376-3.163 2.75-3.163 1.376 0 2.338.688 2.338 3.025V33z" fill="#C75E90"/></symbol></svg>