<svg xmlns="http://www.w3.org/2000/svg" viewBox="0 0 31 31"><symbol id="phone-icon" viewBox="0 0 31 31"><path class="phone-path" d="M27.124 24.782v-3.5a2.33 2.33 0 00-.553-1.566c-1.046-1.231-4.631-2.02-6.053-1.717-1.108.236-1.883 1.349-2.64 2.105a18.685 18.685 0 01-7.015-7c.758-.757 1.873-1.53 2.109-2.636.303-1.416-.484-4.98-1.707-6.029a2.34 2.34 0 00-1.547-.564H6.21c-1.336.001-2.448 1.2-2.326 2.544-.009 11.58 9.033 20.706 20.692 20.697 1.35.122 2.554-.995 2.548-2.334z" fill="none" stroke="#fff" stroke-width="1.5" stroke-linecap="round" stroke-linejoin="round"/></symbol></svg>