<svg xmlns="http://www.w3.org/2000/svg"><symbol id="quote-icon" viewBox="0 0 88 88"><path d="M11 77c11 0 25.667-3.667 25.667-29.333V18.333c0-4.583-2.772-7.395-7.334-7.333H14.667c-4.584 0-7.334 2.75-7.334 7.23v22.103c0 4.584 2.75 7.334 7.334 7.334 3.666 0 3.666 0 3.666 3.666V55c0 3.667-3.666 7.333-7.333 7.333-3.667 0-3.667.03-3.667 3.78v7.22C7.333 77 7.333 77 11 77zm44 0c11 0 25.667-3.667 25.667-29.333V18.333c0-4.583-2.776-7.395-7.334-7.333H58.667c-4.584 0-7.334 2.75-7.334 7.23v22.103c0 4.584 2.75 7.334 7.334 7.334h2.75c0 8.25.916 14.666-10.084 14.666v11C51.333 77 51.333 77 55 77z" stroke="#C75E90" stroke-width="2" stroke-linecap="round" stroke-linejoin="round"/></symbol></svg>