<svg width="66" height="66" viewBox="0 0 66 66" fill="none" xmlns="http://www.w3.org/2000/svg"><g id="royal-crown-of-elegant-vintage-design-svgrepo-com 1" clip-path="url(#clip0_1_523)"><g id="Group"><g id="Group_2"><path id="Vector" d="M66 36.416c0-6.091-3.294-11.713-8.593-14.67-2.114-1.174-4.465-1.841-6.872-2.013-.454-.417-.933-.81-1.438-1.159-2.898-2.001-6.32-2.484-9.511-1.684l-1.212-2.901 1.665-3.993-5.047 3.157a2.17 2.17 0 00-1.155-1.154l3.15-5.05-3.984 1.666L29.01 6.95 32.164 12a2.182 2.182 0 00-1.156 1.153l-5.047-3.157 1.66 3.993-1.206 2.899c-3.197-.8-6.62-.317-9.513 1.69-.483.332-.934.71-1.37 1.103-2.579.055-5.115.76-7.372 2.085C3.125 24.73 0 30.341 0 36.416c0 1.745.26 3.47.736 5.006.578 2.753 2.162 5.619 4.233 8.44v9.188h56.036v-9.488c2.031-2.67 3.577-5.382 4.145-7.98a15.95 15.95 0 00.85-5.166zM47.375 21.068c3.47 2.413 5.634 7.044 5.634 12.095 0 1.48-.185 2.93-.577 4.436-.64 3.624-3.047 7.607-5.985 11.336h-1.005c3.036-3.797 5.618-7.936 6.278-11.648.351-1.32.526-2.706.526-4.124 0-4.805-2.036-9.202-5.3-11.475-1.438-.99-2.98-1.492-4.582-1.492-2.696 0-5.258 1.513-7.13 4.103-.221-.13-.433-.31-.66-.4 3.238-4.485 8.62-5.726 12.801-2.83zm-3.877 27.87h-4.14c.846-2.588 1.367-5.743 1.367-9.269 0-6.554-1.712-11.91-4.29-14.457 2.512-3.486 6.47-4.471 9.657-2.275 2.865 1.995 4.644 5.912 4.644 10.226 0 1.29-.154 2.547-.484 3.8-.68 3.789-3.522 8.088-6.754 11.975zm-8.5-34.11l3.66 2.29c-1.088.364-2.119.931-3.099 1.604l-1.712-2.742c.517-.22.929-.636 1.15-1.153zm-1.99 11.794c1.907 0 4.675 5.082 4.675 13.047 0 3.846-.65 6.995-1.531 9.256l.113.01h-8.05l1.597-.147c-.855-2.25-1.484-5.343-1.484-9.124.003-7.957 2.77-13.042 4.68-13.042zm-6.361 22.316h-4.144c-3.217-3.845-6.022-8.089-6.677-11.784-.375-1.434-.541-2.701-.541-3.985 0-4.317 1.789-8.236 4.666-10.232 3.164-2.2 7.123-1.213 9.65 2.272-2.585 2.542-4.3 7.9-4.3 14.46-.005 3.516.496 6.681 1.346 9.27zm4.37-34.11c.217.516.633.932 1.152 1.154l-1.708 2.74c-.98-.676-2.012-1.238-3.1-1.603l3.657-2.292zm-12.375 6.24c1.537-1.063 3.267-1.626 5.005-1.626 2.959 0 5.764 1.642 7.794 4.455-.234.09-.438.265-.654.395-1.883-2.584-4.448-4.095-7.14-4.095-1.607 0-3.143.501-4.566 1.492-3.277 2.275-5.317 6.672-5.317 11.475 0 1.417.184 2.801.573 4.31.643 3.623 3.207 7.701 6.221 11.461h-.968c-2.95-3.755-5.377-7.78-6.027-11.455a16.974 16.974 0 01-.557-4.316c0-5.046 2.16-9.68 5.636-12.096zM3.045 36.416c0-5.005 2.558-9.618 6.662-12.038a12.41 12.41 0 013.014-1.264c-1.748 2.858-2.753 6.371-2.753 10.05 0 1.717.222 3.423.625 4.964.624 3.532 2.656 7.254 5.21 10.807h-7.69c-2.18-2.791-3.869-5.616-4.426-8.27a14.358 14.358 0 01-.642-4.249zM21.223 55.89h-8.13v-3.03h8.13v3.029zm15.847 0h-8.124v-3.03h8.124v3.029zm15.847 0h-8.125v-3.03h8.125v3.029zm9.34-15.1c-.577 2.596-2.32 5.393-4.597 8.148h-7.424c2.526-3.518 4.547-7.201 5.165-10.684.423-1.64.64-3.355.64-5.085 0-3.593-.954-7.011-2.62-9.83.857.271 1.705.607 2.506 1.059 4.346 2.42 7.042 7.029 7.042 12.019 0 1.433-.232 2.856-.712 4.373z" fill="#fff"/></g></g></g><defs><clipPath id="clip0_1_523"><path fill="#fff" d="M0 0h66v66H0z"/></clipPath></defs></svg>