<svg width="57" height="57" viewBox="0 0 57 57" fill="none" xmlns="http://www.w3.org/2000/svg"><g id="crown-made-of-triangles-and-circles-outline-svgrepo-com 1" clip-path="url(#clip0_1_520)"><g id="Group"><path id="Vector" d="M31.666 29.006a3.165 3.165 0 00-3.162-3.161 3.163 3.163 0 00-3.16 3.16 3.164 3.164 0 003.16 3.161 3.167 3.167 0 003.162-3.16zm-3.163.59a.59.59 0 110-1.178.59.59 0 010 1.177zm25.338-13.97a3.154 3.154 0 00-2.581 4.976L38.48 30.53l-8.672-19.586a3.159 3.159 0 001.852-2.87 3.161 3.161 0 00-6.32 0c0 1.276.763 2.367 1.853 2.87l-8.64 19.516-12.81-9.856a3.158 3.158 0 00.579-1.816 3.163 3.163 0 00-3.161-3.16A3.163 3.163 0 000 18.786a3.165 3.165 0 003.16 3.161c.07 0 .135-.017.201-.02l9.095 23.49c.192.496.668.82 1.198.82h29.692c.534 0 1.008-.32 1.198-.82l9.095-23.49c.066.003.132.02.198.02A3.164 3.164 0 0057 18.788a3.159 3.159 0 00-3.159-3.161zM28.503 7.485a.59.59 0 110 1.178.59.59 0 010-1.178zm0 6.853l7.888 17.82-7.78 6.04-7.96-6.125 7.852-17.735zm-25.928 4.45a.59.59 0 111.18.003.59.59 0 01-1.18-.003zM17.484 32.88l-3.801 8.585-6.345-16.391 10.146 7.806zm-1.965 10.788l4.062-9.174 6.933 5.334-4.944 3.84h-6.05zm10.242 0l2.858-2.22 2.889 2.22H25.76zm9.632-.255l-4.674-3.595 6.743-5.24 4.026 9.09h-5.842a1.36 1.36 0 00-.253-.255zm7.928-1.948l-3.766-8.511 10.096-7.846-6.33 16.357zm10.52-22.088a.591.591 0 01-.59-.589.59.59 0 01.59-.59.589.589 0 110 1.18zm-9.34 31.426c0 .71-.575 1.285-1.285 1.285H13.788a1.286 1.286 0 010-2.57h29.428c.713 0 1.286.575 1.286 1.285z" fill="#C75E90"/></g></g><defs><clipPath id="clip0_1_520"><path fill="#fff" d="M0 0h57v57H0z"/></clipPath></defs></svg>