<svg xmlns="http://www.w3.org/2000/svg" viewBox="0 0 44 44"><symbol id="youtube-icon" viewBox="0 0 44 44"><path class="youtube-play-triangle" d="M25.575 22L19.8 18.7v6.6l5.775-3.3z" fill="#C75E90"/><path class="youtube-circle" fill-rule="evenodd" clip-rule="evenodd" d="M0 22C0 9.85 9.85 0 22 0s22 9.85 22 22-9.85 22-22 22S0 34.15 0 22zm30.525-7.287c.963.275 1.65.962 1.925 1.925C33 18.424 33 22 33 22s0 3.575-.413 5.363a2.723 2.723 0 01-1.925 1.925C28.876 29.7 22 29.7 22 29.7s-7.012 0-8.662-.412a2.723 2.723 0 01-1.925-1.925C11 25.575 11 22 11 22s0-3.575.275-5.363a2.723 2.723 0 011.925-1.925c1.788-.412 8.663-.412 8.663-.412s7.012 0 8.662.412z" fill="#C75E90"/></symbol></svg>